<svg xmlns="http://www.w3.org/2000/svg" viewBox="0 0 3333 3144" shape-rendering="geometricPrecision" text-rendering="geometricPrecision" image-rendering="optimizeQuality" fill-rule="evenodd" clip-rule="evenodd"><path d="M2483 1316c131-657-124-1207-816-1212-495-4-946 319-823 1166 16 106-36 92-114 75-66-14-133-29-199-43-33 6-57 18-74 35-96 101 96 179 169 206 95 36 199 69 186 181-5 44-19 87-37 131-90 219-329 421-556 486-118 34-178 47 2 145 80 44 183 69 314 88 19 349 150 125 435 182 36 7 74 12 115 30 73 32 147 95 232 144 255 147 485 156 732-18 143-101 281-202 536-170 179 23 168 78 228-174 225-39 428-84 416-207-294-63-481-216-637-468-61-99-140-245 24-314 42-18 100-28 166-51 58-21 110-56 123-84 33-73-22-138-91-143-132-10-194 77-274 50-17-6-36-17-56-35zm137-308c-1 77-7 155-18 235 5-2 9-4 14-6 53-21 114-46 205-40 26 2 51 8 74 19 37 17 69 43 91 76 23 35 35 77 32 122-2 23-8 47-19 72-14 32-43 63-80 88-29 20-65 38-102 52-31 11-66 21-97 29-23 6-44 12-60 18-1 1-2 1-4 2-27 12-35 25-33 38 4 37 33 86 58 126 71 115 149 207 241 276 91 68 198 116 329 144 43 9 78 46 82 92 11 118-63 191-184 240-70 28-158 48-251 66-58 237-75 234-254 199-22-4-48-9-72-13-210-27-331 59-455 146l-8 6c-142 100-280 147-422 148-140 1-278-42-421-125-41-24-74-46-107-68-42-28-81-55-115-70-23-10-48-15-72-19-18-3-7-1-22-4-82-17-154-3-210 8-29 6-54 10-82 12h-3c-121 7-191-31-215-215-38-7-73-15-107-24-60-16-113-36-160-62-161-87-198-158-154-240 30-56 88-72 165-94l3-1c1 0 3-1 4-1 101-29 205-89 293-166 87-75 157-166 196-259 8-18 14-37 20-55 5-16 8-32 10-48 3-27-53-48-107-68l-11-4c-42-16-119-46-176-91-94-74-141-169-32-284 17-18 38-33 62-44 21-10 44-17 68-22 13-3 27-3 41 1l182 40c-11-88-16-171-15-250 2-307 91-535 230-695 142-162 334-252 542-283 56-8 115-12 175-12 83 1 160 8 230 22 246 49 428 174 549 350 118 172 174 391 172 635z" fill-rule="nonzero"/></svg>